<?xml version="1.0" encoding="utf-8"?>
<!-- Generator: Adobe Illustrator 23.0.3, SVG Export Plug-In . SVG Version: 6.00 Build 0)  -->
<svg version="1.1" id="Layer_1" xmlns="http://www.w3.org/2000/svg" xmlns:xlink="http://www.w3.org/1999/xlink" x="0px" y="0px"
	 viewBox="0 0 300 300" style="enable-background:new 0 0 300 300;" xml:space="preserve" width="300" height="300">
<style type="text/css">
	.st0{fill:#FFFFFF;}
	.st1{fill:#999999;}
	.st2{fill-rule:evenodd;clip-rule:evenodd;fill:#4CAF50;}
	.st3{fill-rule:evenodd;clip-rule:evenodd;fill:#9E9E9E;}
	.st4{fill:#9E9E9E;}
</style>
<g>
	<path class="st0" d="M6,91c-0.26,0-0.51-0.1-0.71-0.29l-5-5c-0.39-0.39-0.39-1.02,0-1.41l5-5c0.39-0.39,1.02-0.39,1.41,0
		s0.39,1.02,0,1.41L2.41,85l4.29,4.29c0.39,0.39,0.39,1.02,0,1.41C6.51,90.9,6.26,91,6,91z"/>
</g>
<g>
	<path class="st0" d="M12,79c0.26,0,0.51,0.1,0.71,0.29l5,5c0.39,0.39,0.39,1.02,0,1.41l-5,5c-0.39,0.39-1.02,0.39-1.41,0
		s-0.39-1.02,0-1.41L15.59,85l-4.29-4.29c-0.39-0.39-0.39-1.02,0-1.41C11.49,79.1,11.74,79,12,79z"/>
</g>
<g>
	<path class="st0" d="M33.7,62.95c-0.3-0.97-0.8-1.86-1.48-2.62c-0.37-0.41-1-0.44-1.41-0.08c-0.41,0.37-0.45,1-0.08,1.41
		c0.49,0.55,0.85,1.17,1.06,1.87c0.38,1.25,0.25,2.58-0.38,3.74c-0.67,1.22-1.79,2.11-3.18,2.51c-0.29,0.08-0.58,0.13-0.87,0.16
		l0.24-0.24c0.39-0.39,0.39-1.02,0-1.41c-0.39-0.39-1.03-0.39-1.42,0l-1.88,1.89c-0.38,0.38-0.39,1-0.02,1.39l2,2.11
		C26.47,73.9,26.74,74,27,74c0.25,0,0.5-0.09,0.69-0.27c0.4-0.38,0.42-1.01,0.04-1.41l-0.34-0.36c0.47-0.04,0.93-0.11,1.39-0.24
		c1.9-0.54,3.46-1.78,4.39-3.48C34.05,66.6,34.24,64.72,33.7,62.95z"/>
	<path class="st0" d="M21.22,66.73c-0.4-1.34-0.25-2.75,0.42-3.97c0.67-1.24,1.8-2.14,3.16-2.54c0.28-0.08,0.57-0.13,0.85-0.16
		l-0.24,0.24c-0.39,0.39-0.39,1.02,0,1.41C25.6,61.9,25.86,62,26.12,62c0.26,0,0.51-0.1,0.71-0.29l1.88-1.89
		c0.38-0.38,0.39-1,0.02-1.39l-2-2.11c-0.38-0.4-1.01-0.42-1.41-0.04c-0.4,0.38-0.42,1.01-0.04,1.41l0.33,0.35
		c-0.46,0.04-0.92,0.13-1.37,0.26c-1.88,0.55-3.42,1.79-4.35,3.5c-0.92,1.7-1.13,3.65-0.58,5.5c0.25,0.84,0.64,1.61,1.17,2.31
		c0.2,0.26,0.5,0.4,0.8,0.4c0.21,0,0.42-0.07,0.6-0.2c0.44-0.33,0.53-0.96,0.19-1.4C21.68,67.9,21.4,67.33,21.22,66.73z"/>
</g>
<g>
	<path class="st1" d="M14.7,62.95c-0.3-0.98-0.8-1.86-1.48-2.62c-0.37-0.41-1-0.44-1.41-0.08c-0.41,0.37-0.44,1-0.08,1.41
		c0.49,0.55,0.85,1.17,1.06,1.87c0.38,1.25,0.25,2.58-0.38,3.74c-0.67,1.22-1.79,2.12-3.18,2.51c-0.29,0.08-0.58,0.12-0.87,0.16
		l0.24-0.24c0.39-0.39,0.39-1.03,0-1.42c-0.39-0.39-1.02-0.39-1.41,0l-1.88,1.89c-0.38,0.38-0.39,1-0.02,1.39l2,2.11
		C7.47,73.9,7.74,74,8,74c0.25,0,0.5-0.09,0.69-0.27c0.4-0.38,0.42-1.01,0.04-1.41l-0.34-0.36c0.47-0.04,0.93-0.11,1.39-0.24
		c1.9-0.54,3.46-1.78,4.39-3.48C15.05,66.6,15.24,64.73,14.7,62.95z"/>
	<path class="st1" d="M2.22,66.73c-0.4-1.34-0.25-2.75,0.42-3.97c0.67-1.24,1.8-2.14,3.16-2.54c0.28-0.08,0.57-0.13,0.85-0.16
		l-0.24,0.24c-0.39,0.39-0.39,1.03,0,1.42C6.6,61.9,6.86,62,7.12,62c0.26,0,0.51-0.1,0.71-0.29l1.88-1.89
		c0.38-0.38,0.39-1,0.02-1.39l-2-2.11c-0.38-0.4-1.01-0.42-1.41-0.04c-0.4,0.38-0.42,1.01-0.04,1.41l0.33,0.35
		c-0.46,0.04-0.92,0.13-1.37,0.26c-1.88,0.55-3.42,1.79-4.35,3.5c-0.92,1.7-1.13,3.65-0.58,5.5c0.25,0.84,0.64,1.61,1.17,2.31
		c0.2,0.26,0.5,0.4,0.8,0.4c0.21,0,0.42-0.07,0.6-0.2c0.44-0.33,0.53-0.96,0.19-1.4C2.68,67.9,2.4,67.33,2.22,66.73z"/>
</g>
<g>
	<g>
		<g>
			<path class="st0" d="M6.54,46.5c-0.13,0-0.25-0.05-0.34-0.14l-2.54-2.39c-0.2-0.19-0.21-0.51-0.02-0.71
				c0.19-0.2,0.51-0.21,0.71-0.02l2.17,2.04l4.12-4.62c0.18-0.21,0.5-0.22,0.71-0.04c0.21,0.18,0.22,0.5,0.04,0.71l-4.46,5
				c-0.09,0.1-0.22,0.16-0.35,0.17C6.55,46.5,6.55,46.5,6.54,46.5z"/>
		</g>
	</g>
</g>
<g>
	<g>
		<g>
			<path class="st0" d="M46.54,46.5c-0.13,0-0.25-0.05-0.34-0.14l-2.54-2.39c-0.2-0.19-0.21-0.51-0.02-0.71
				c0.19-0.2,0.51-0.21,0.71-0.02l2.17,2.04l4.12-4.62c0.18-0.21,0.5-0.22,0.71-0.04s0.22,0.5,0.04,0.71l-4.46,5
				c-0.09,0.1-0.22,0.16-0.35,0.17C46.55,46.5,46.55,46.5,46.54,46.5z"/>
		</g>
	</g>
</g>
<g>
	<g>
		<g>
			<path class="st0" d="M31.5,44H23c-0.28,0-0.5-0.22-0.5-0.5S22.72,43,23,43h8.5c0.28,0,0.5,0.22,0.5,0.5S31.78,44,31.5,44z"/>
		</g>
	</g>
</g>
<polygon class="st2" points="88.31,110.14 81.95,103.78 88.31,97.41 86.9,96 80.54,102.36 74.17,96 72.76,97.41 79.12,103.78 
	72.76,110.14 74.17,111.56 80.54,105.19 86.9,111.56 "/>
<g>
	<path class="st0" d="M27.43,106c-0.24,0-0.47-0.08-0.66-0.25l-4.35-3.83c-0.42-0.37-0.46-1-0.09-1.41c0.37-0.42,1-0.46,1.41-0.09
		l3.63,3.2l6.98-7.31c0.38-0.4,1.01-0.41,1.41-0.03c0.4,0.38,0.41,1.01,0.03,1.41l-7.65,8C27.95,105.9,27.69,106,27.43,106z"/>
</g>
<g>
	<path class="st0" d="M13.11,102c-0.13,0-0.25-0.05-0.34-0.14l-2.54-2.39c-0.2-0.19-0.21-0.51-0.02-0.71
		c0.19-0.2,0.51-0.21,0.71-0.02l2.17,2.04l4.12-4.62c0.18-0.21,0.5-0.22,0.71-0.04c0.21,0.18,0.22,0.5,0.04,0.71l-4.46,5
		c-0.09,0.1-0.22,0.16-0.35,0.17C13.13,102,13.12,102,13.11,102z"/>
</g>
<g>
	<path class="st0" d="M2.29,100.43c-0.12,0-0.24-0.04-0.33-0.12L0.1,98.66c-0.21-0.18-0.23-0.5-0.04-0.71s0.5-0.23,0.71-0.04
		l1.51,1.32l2.95-3.08c0.19-0.2,0.51-0.21,0.71-0.02s0.21,0.51,0.02,0.71l-3.28,3.43C2.56,100.38,2.43,100.43,2.29,100.43z"/>
</g>
<g>
	<g>
		<g>
			<path class="st0" d="M50.89,116.47c-0.36,0-0.72-0.13-1-0.38l-9.32-8.36c-0.62-0.55-0.67-1.5-0.11-2.12
				c0.55-0.62,1.5-0.67,2.12-0.11l8.23,7.38l15.36-16.39c0.57-0.61,1.52-0.64,2.12-0.07c0.6,0.57,0.64,1.52,0.07,2.12l-16.37,17.47
				C51.69,116.31,51.29,116.47,50.89,116.47z"/>
		</g>
	</g>
</g>
<g>
	<g>
		<polygon class="st2" points="23.21,10.73 18.99,13.28 20.11,8.48 16.38,5.25 21.3,4.84 23.21,0.28 25.12,4.84 30.05,5.25 
			26.31,8.48 27.44,13.28 		"/>
	</g>
	<g>
		<polygon class="st2" points="39.5,10.73 35.28,13.28 36.4,8.48 32.67,5.25 37.59,4.84 39.5,0.28 41.41,4.84 46.33,5.25 42.6,8.48 
			43.72,13.28 		"/>
	</g>
	<g>
		<polygon class="st2" points="55.79,10.73 51.56,13.28 52.69,8.48 48.95,5.25 53.88,4.84 55.79,0.28 57.7,4.84 62.62,5.25 
			58.89,8.48 60.01,13.28 		"/>
	</g>
	<g>
		<polygon class="st2" points="72.08,10.7 67.85,13.28 69,8.47 65.24,5.25 70.18,4.85 72.08,0.28 73.98,4.85 78.91,5.25 75.15,8.47 
			76.3,13.28 		"/>
	</g>
	<g>
		<polygon class="st2" points="6.92,10.73 2.7,13.28 3.83,8.48 0.09,5.25 5.01,4.84 6.92,0.28 8.84,4.84 13.76,5.25 10.02,8.48 
			11.15,13.28 		"/>
	</g>
</g>
<g>
	<g>
		<polygon class="st3" points="23.21,28.73 18.99,31.28 20.11,26.48 16.38,23.25 21.3,22.84 23.21,18.28 25.12,22.84 30.05,23.25 
			26.31,26.48 27.44,31.28 		"/>
	</g>
	<g>
		<polygon class="st3" points="39.5,28.73 35.28,31.28 36.4,26.48 32.67,23.25 37.59,22.84 39.5,18.28 41.41,22.84 46.33,23.25 
			42.6,26.48 43.72,31.28 		"/>
	</g>
	<g>
		<polygon class="st3" points="55.79,28.73 51.56,31.28 52.69,26.48 48.95,23.25 53.88,22.84 55.79,18.28 57.7,22.84 62.62,23.25 
			58.89,26.48 60.01,31.28 		"/>
	</g>
	<g>
		<polygon class="st3" points="72.08,28.7 67.85,31.28 69,26.47 65.24,23.25 70.18,22.85 72.08,18.28 73.98,22.85 78.91,23.25 
			75.15,26.47 76.3,31.28 		"/>
	</g>
	<g>
		<polygon class="st3" points="6.92,28.73 2.7,31.28 3.83,26.48 0.09,23.25 5.01,22.84 6.92,18.28 8.84,22.84 13.76,23.25 
			10.02,26.48 11.15,31.28 		"/>
	</g>
</g>
<g>
	<g>
		<path class="st4" d="M22,85c0-0.26,0.1-0.51,0.29-0.71l5-5c0.39-0.39,1.02-0.39,1.41,0l5,5c0.39,0.39,0.39,1.02,0,1.41
			s-1.02,0.39-1.41,0L28,81.41l-4.29,4.29c-0.39,0.39-1.02,0.39-1.41,0C22.1,85.51,22,85.26,22,85z"/>
	</g>
	<g>
		<path class="st4" d="M50,80c0,0.26-0.1,0.51-0.29,0.71l-5,5c-0.39,0.39-1.02,0.39-1.41,0l-5-5c-0.39-0.39-0.39-1.02,0-1.41
			s1.02-0.39,1.41,0L44,83.59l4.29-4.29c0.39-0.39,1.02-0.39,1.41,0C49.9,79.49,50,79.74,50,80z"/>
	</g>
</g>
<g>
	<g>
		<path class="st0" d="M54.41,85c0-0.26,0.1-0.51,0.29-0.71l5-5c0.39-0.39,1.02-0.39,1.41,0l5,5c0.39,0.39,0.39,1.02,0,1.41
			s-1.02,0.39-1.41,0l-4.29-4.29l-4.29,4.29c-0.39,0.39-1.02,0.39-1.41,0C54.51,85.51,54.41,85.26,54.41,85z"/>
	</g>
	<g>
		<path class="st0" d="M82.41,80c0,0.26-0.1,0.51-0.29,0.71l-5,5c-0.39,0.39-1.02,0.39-1.41,0l-5-5c-0.39-0.39-0.39-1.02,0-1.41
			s1.02-0.39,1.41,0l4.29,4.29l4.29-4.29c0.39-0.39,1.02-0.39,1.41,0C82.32,79.49,82.41,79.74,82.41,80z"/>
	</g>
</g>
<g>
	<g>
		<g>
			<path class="st0" d="M61.62,40.39c0-0.26,0.09-0.47,0.27-0.63c0.18-0.17,0.42-0.25,0.73-0.25c0.3,0,0.55,0.08,0.73,0.25
				c0.18,0.17,0.27,0.38,0.27,0.63c0,0.26-0.09,0.48-0.28,0.64c-0.18,0.17-0.42,0.25-0.72,0.25s-0.54-0.08-0.72-0.25
				C61.72,40.86,61.62,40.65,61.62,40.39z M63.51,48.5h-1.78v-6.44h1.78V48.5z"/>
		</g>
	</g>
</g>
</svg>
